<svg xmlns="http://www.w3.org/2000/svg" width="83" height="83" viewBox="0 0 83 83"><defs><style>.a{fill:#d6001c;}.b{fill:#fff;stroke:#fff;stroke-width:0.5px;}</style></defs><circle class="a" cx="41.5" cy="41.5" r="41.5"/><g transform="translate(8.344 10.847)"><g transform="translate(15.75 9.305)"><path class="b" d="M56.28,730.936v-8.543l-.374-.186a28.938,28.938,0,0,0-26.117,0l-.36.186v8.543h-4.22v6.815l.327.2a35.042,35.042,0,0,0,3.893,2.085V761.24h5.4l1.673-5.754H49.182l1.673,5.754H56.28V740.067a34.536,34.536,0,0,0,3.9-2.121l.322-.2v-6.812ZM29.428,738.55q-1.439-.706-2.877-1.548v-4.724h2.877ZM54.937,759.9h-3.08l-1.67-5.754H35.5L33.823,759.9H30.77V740.622c.576.225,1.076.433,1.624.629L35.4,751.474l.307.117a23.869,23.869,0,0,0,7.134,1.16,23.84,23.84,0,0,0,7.133-1.16l.312-.117,3-10.18c.552-.2,1.073-.41,1.648-.636Zm-21-18.118a30.875,30.875,0,0,0,8.954,1.431h.047a30.494,30.494,0,0,0,8.8-1.39l-2.546,8.635a23.138,23.138,0,0,1-6.349.957,23.1,23.1,0,0,1-6.349-.963Zm21-2.583a30.371,30.371,0,0,1-12,2.671h-.047a31.269,31.269,0,0,1-12.118-2.706v-6.884H54.937Zm0-8.261H30.77v-7.71a27.546,27.546,0,0,1,24.167,0Zm4.22,6.071q-1.438.856-2.876,1.574v-6.3h2.876Z" transform="translate(-25.208 -719.093)"/></g><g transform="translate(0)"><path class="b" d="M72.592,736.559a29.05,29.05,0,0,0-57.156-1.417l-1.334-.268a30.412,30.412,0,0,1,59.836,1.484Z" transform="translate(-10.513 -710.61)"/><g transform="translate(0 18.082)"><path class="b" d="M10.8,727.936l1.183-.667,3.281,5.83,5.575-3.7.75,1.132-6.791,4.5Z" transform="translate(-10.796 -727.268)"/></g></g><g transform="translate(3.327 34.808)"><path class="b" d="M43.91,768.449A30.529,30.529,0,0,1,13.861,742.7l1.347-.2a29.049,29.049,0,0,0,57.155,1.415l1.335.267A30.437,30.437,0,0,1,43.91,768.449Z" transform="translate(-13.861 -742.5)"/><g transform="translate(52.637 0.1)"><path class="b" d="M72.948,749.692l-1.183.667-3.281-5.83-5.575,3.7-.75-1.132,6.791-4.5Z" transform="translate(-62.159 -742.593)"/></g></g></g></svg>