<svg xmlns="http://www.w3.org/2000/svg" width="59.493" height="64" viewBox="0 0 59.493 64"><defs><style>.a{fill:#041e42;}</style></defs><path class="a" d="M29.782,608.005v-6.552a5.906,5.906,0,0,0-5.9-5.9H4.055a5.908,5.908,0,0,0-5.9,5.9v6.552H-15.778v51.547H43.715V608.005ZM.251,601.453a3.81,3.81,0,0,1,3.8-3.806H23.882a3.81,3.81,0,0,1,3.8,3.806v6.552H.251ZM-13.682,610.1h55.3V621A17.043,17.043,0,0,1,24.6,638.022H22.353v-5.291H5.584v5.291H3.341A17.043,17.043,0,0,1-13.682,621Zm33.94,24.725v7.536H7.68v-7.536Zm21.362,22.63h-55.3v-27.8a19.124,19.124,0,0,0,17.024,10.46H5.584v4.341H22.353v-4.341H24.6a19.122,19.122,0,0,0,17.024-10.46Z" transform="translate(15.778 -595.552)"/></svg>