<svg xmlns="http://www.w3.org/2000/svg" width="83" height="83" viewBox="0 0 83 83"><defs><style>.a{fill:#d6001c;}.b{fill:#fff;stroke:#fff;stroke-width:0.5px;}</style></defs><g transform="translate(0 -0.107)"><circle class="a" cx="41.5" cy="41.5" r="41.5" transform="translate(0 0.107)"/><path class="b" d="M-8.026,730.868c0-2.966-6.195-4.566-12.023-4.566s-12.023,1.6-12.023,4.566v4.064a30.4,30.4,0,0,0-5.637-.525c-5.828,0-12.023,1.6-12.023,4.566v4.912a2.006,2.006,0,0,0,.037.281h-.037v4.91c0,2.966,6.195,4.567,12.023,4.567a29.824,29.824,0,0,0,6.191-.628v-.3c1.637,2.037,6.672,3.122,11.469,3.122,5.828,0,12.023-1.6,12.023-4.566v-4.912h-.031a2.042,2.042,0,0,0,.031-.233v-4.911h-.032a2.294,2.294,0,0,0,.032-.245v-4.911h-.037a1.994,1.994,0,0,0,.037-.28Zm-29.683,4.911a28.2,28.2,0,0,1,5.637.532v4.66a2.043,2.043,0,0,0,.032.245h-.032v.421a28.3,28.3,0,0,1-5.637.531c-6.6,0-10.651-1.86-10.651-3.194S-44.309,735.778-37.709,735.778Zm-10.651,5.389c2.144,1.551,6.485,2.372,10.651,2.372a30.086,30.086,0,0,0,5.637-.528v3.114a2.041,2.041,0,0,0,.031.233h-.031v.189a28.212,28.212,0,0,1-5.637.532c-6.6,0-10.651-1.86-10.651-3.194Zm10.651,11.1c-6.6,0-10.651-1.861-10.651-3.2v-3c2.144,1.549,6.485,2.371,10.651,2.371a30.168,30.168,0,0,0,5.637-.528v3.347a2.105,2.105,0,0,0,.059.456A28.13,28.13,0,0,1-37.709,752.271Zm28.311-1c0,1.334-4.053,3.194-10.651,3.194S-30.7,752.6-30.7,751.27v-2.95c2.144,1.551,6.484,2.371,10.651,2.371s8.507-.821,10.651-2.371Zm0-5.145c0,1.334-4.053,3.195-10.651,3.195S-30.7,747.46-30.7,746.126v-2.961c2.144,1.551,6.484,2.372,10.651,2.372s8.507-.822,10.651-2.372Zm0-5.155c0,1.334-4.053,3.2-10.651,3.2S-30.7,742.3-30.7,740.97v-3c2.144,1.549,6.484,2.371,10.651,2.371s8.507-.822,10.651-2.371Zm0-5.191c0,1.333-4.053,3.195-10.651,3.195S-30.7,737.113-30.7,735.78v-2.717c2.144,1.549,6.484,2.371,10.651,2.371s8.507-.822,10.651-2.371Zm-10.651-1.717c-6.6,0-10.651-1.86-10.651-3.195s4.052-3.194,10.651-3.194S-9.4,729.533-9.4,730.868-13.451,734.062-20.049,734.062Zm26.967,5.784-4.373-3.436a30.746,30.746,0,0,1,.363,4.7,30.6,30.6,0,0,1-30.563,30.562,30.6,30.6,0,0,1-30.562-30.562,30.6,30.6,0,0,1,30.562-30.563A30.672,30.672,0,0,1-2.916,723.177l-1.109.807a29.3,29.3,0,0,0-23.63-12.06,29.224,29.224,0,0,0-29.19,29.191,29.223,29.223,0,0,0,29.19,29.19,29.223,29.223,0,0,0,29.191-29.19,29.449,29.449,0,0,0-.4-4.768l-3.322,4.929-1.137-.769,4.6-6.83,6.478,5.09Z" transform="translate(69.064 -699.705)"/></g></svg>