<svg xmlns="http://www.w3.org/2000/svg" width="57.507" height="64" viewBox="0 0 57.507 64"><defs><style>.a{fill:#041e42;}</style></defs><path class="a" d="M-45.582,646.337l-2.453,8.437h-4.477V626.51c.844.329,1.577.635,2.379.922l4.41,14.991.45.172a35,35,0,0,0,10.461,1.7c.7,0,1.512-.038,2.367-.108a16.029,16.029,0,0,1-.151-1.953c-.8.064-1.557.1-2.217.1a33.876,33.876,0,0,1-9.309-1.412l-3.751-12.712a45.261,45.261,0,0,0,13.127,2.1h.068c.689,0,1.393-.049,2.091-.087l0-1.69v-.255q-1.053.062-2.087.064h-.068a45.843,45.843,0,0,1-17.767-3.968V614.275h35.436V619.7l1.969,1.905v-7.334h4.219v6.933c-.945.563-1.892,1.084-2.838,1.585a14.693,14.693,0,0,0,1.883,1.23c.831-.46,1.654-.933,2.451-1.439l.471-.29v-9.989h-6.186V599.779l-.547-.272a43.163,43.163,0,0,0-19.156-4.566,43.091,43.091,0,0,0-19.14,4.566l-.53.272v12.527h-6.186V622.3l.479.29a51.388,51.388,0,0,0,5.707,3.057v31.094h7.916l2.451-8.437H-31.2a15.028,15.028,0,0,1-.748-1.967ZM-52.512,601a41.27,41.27,0,0,1,17.717-4.094A41.272,41.272,0,0,1-17.076,601v11.3H-52.512Zm-1.969,22.47q-2.11-1.036-4.218-2.27v-6.926h4.218Zm51.283,9.18.011-5.1-1.253-.021a16.7,16.7,0,0,1-11.754-4.713l-.885-.855-.883.856a16.7,16.7,0,0,1-11.754,4.711l-1.251.021.011,5.1c.014,2.887.029,5.873-.033,8.817a13.839,13.839,0,0,0,3.072,9.11,27.012,27.012,0,0,0,7.562,6.487c.705.431,1.432.839,2.177,1.259l1.1.619,1.175-.661c.7-.39,1.41-.794,2.1-1.216a27.072,27.072,0,0,0,7.563-6.489,13.847,13.847,0,0,0,3.072-9.11C-3.226,638.523-3.212,635.539-3.2,632.651Zm-4.608,16.7a25.123,25.123,0,0,1-7.028,6.013c-.673.411-1.37.8-2.114,1.221l-.129.073-.166-.092c-.686-.387-1.391-.785-2.079-1.2a25.139,25.139,0,0,1-7.027-6.011A11.924,11.924,0,0,1-29,641.507c.062-2.97.048-5.968.033-8.868l-.01-3.142a18.531,18.531,0,0,0,11.9-4.783,18.527,18.527,0,0,0,11.9,4.783l-.01,3.145c-.014,2.9-.029,5.9.033,8.865A11.917,11.917,0,0,1-7.8,649.352Z" transform="translate(60.667 -594.941)"/></svg>