<svg xmlns="http://www.w3.org/2000/svg" width="48.002" height="64" viewBox="0 0 48.002 64"><defs><style>.a{fill:#d6001c;}.b{fill:none;stroke:#fff;stroke-width:2px;}</style></defs><g transform="translate(-266 -1027)"><g transform="translate(266 1027)"><path class="a" d="M29.393,615.493c.011-2.374.022-4.755.022-7.144v-.508l-.508-.008a32.81,32.81,0,0,1-23.089-9.271l-.358-.346-.359.346a32.808,32.808,0,0,1-23.088,9.271l-.508.008v.508q0,3.58.022,7.138c.025,5.392.051,10.966-.063,16.426a23.921,23.921,0,0,0,5.318,15.75A48.5,48.5,0,0,0,.333,659.273c1.316.8,2.675,1.565,3.99,2.3l1.138.641,1.144-.644c1.312-.738,2.67-1.5,3.983-2.3a48.522,48.522,0,0,0,13.55-11.609,23.915,23.915,0,0,0,5.317-15.75C29.342,626.456,29.367,620.883,29.393,615.493Z" transform="translate(18.541 -598.216)"/></g><g transform="translate(273.07 1036.426)"><path class="b" d="M15.273,610.4c.008-1.675.016-3.354.016-5.04v-.358L14.931,605a23.145,23.145,0,0,1-16.288-6.54l-.252-.244-.253.244A23.143,23.143,0,0,1-18.149,605l-.358.006v.358q0,2.526.016,5.036c.018,3.8.036,7.736-.044,11.588a16.874,16.874,0,0,0,3.751,11.11,34.215,34.215,0,0,0,9.558,8.19c.928.566,1.887,1.1,2.814,1.624l.8.452.807-.454c.926-.521,1.884-1.058,2.81-1.622a34.228,34.228,0,0,0,9.559-8.19,16.87,16.87,0,0,0,3.751-11.11C15.237,618.137,15.255,614.206,15.273,610.4Z" transform="translate(18.541 -598.216)"/></g></g></svg>