<svg xmlns="http://www.w3.org/2000/svg" width="193.505" height="32" viewBox="0 0 193.505 32"><defs><style>.a{fill:#041e42;}</style></defs><path class="a" d="M187.246,125.263,175.911,95.9H158.049l-9.243,23.94V95.9H137.554v29.364h20.661l1.63-4.222H173.9l1.633,4.222Zm-16.314-12h-8.116l4.058-10.583Zm-48.938,12h12.8V95.9h-11v15.476L112.2,95.9H98.273v23.94L89.031,95.9H71.169l-6.7,17.357H53.557c-.544,3.472-2.552,5.312-6.065,5.312-4.058,0-6.317-3.137-6.317-7.988s2.3-7.948,6.317-7.948c3.3,0,5.437,1.758,5.9,4.6H65.479v-.794c0-6.484-5.606-11.838-17.862-11.838-13.22,0-18.238,6.609-18.238,15.979,0,.214.005.427.011.64-1.658-2.015-4.84-3.191-10.092-3.944l-7.655-1.09c-2.887-.416-4.685-.75-4.685-2.173,0-1.213,1.128-2.511,4.269-2.511,3.471,0,5.4,1.34,5.4,3.515h12.3v-.627c0-5.859-5.858-9.706-17.361-9.706C-.276,94.687-5.465,99-5.465,105.061c0,4.727,3.1,7.487,10.373,8.491l8.659,1.212c3.094.419,4.1,1.047,4.1,2.344,0,1.673-1.589,2.592-5.146,2.592-4.015,0-5.854-1.716-5.854-4.1H-6.259v.669c0,6.524,6.149,10.29,18.237,10.29,11.171,0,17.649-2.47,18.709-8.7,2.235,5.35,7.491,8.744,16.93,8.744,7.158,0,11.175-1.951,13.586-4.89l-1.37,3.548h11.5l1.632-4.222H87.021l1.633,4.222h20.621v-16.9Zm-37.943-12H75.937l4.057-10.583Z" transform="translate(6.259 -94.604)"/></svg>